<?xml version="1.0" encoding="utf-8"?>
<!-- Generator: Adobe Illustrator 17.0.0, SVG Export Plug-In . SVG Version: 6.00 Build 0)  -->
<!DOCTYPE svg PUBLIC "-//W3C//DTD SVG 1.1//EN" "http://www.w3.org/Graphics/SVG/1.1/DTD/svg11.dtd">
<svg version="1.1" id="Layer_1" xmlns="http://www.w3.org/2000/svg" xmlns:xlink="http://www.w3.org/1999/xlink" x="0px" y="0px"
	 width="591px" height="345px" viewBox="0 0 591 345" enable-background="new 0 0 591 345" xml:space="preserve">
<path fill="none" stroke="#3165AF" stroke-width="2" stroke-miterlimit="10" d="M130.889,138.076
	c1.409-4.381,5.529-7.567,10.408-7.567c6.035,0,10.913,4.888,10.913,10.934"/>
<path fill="none" stroke="#3165AF" stroke-width="2" stroke-miterlimit="10" d="M130.889,138.003
	c1.409-4.381,5.529-7.567,10.408-7.567c6.035,0,10.913,4.888,10.913,10.934"/>
<path fill="none" stroke="#3165AF" stroke-width="2" stroke-miterlimit="10" d="M131.286,144.049
	c0.614-0.724,0.976-1.665,0.976-2.679c0-2.317-1.879-4.163-4.156-4.163c-2.313,0-4.156,1.882-4.156,4.163h-0.108h-9.902"/>
<line fill="none" stroke="#3165AF" stroke-width="2" stroke-miterlimit="10" x1="122.144" y1="145.353" x2="102.991" y2="145.353"/>
<path fill="none" stroke="#3165AF" stroke-width="2" stroke-miterlimit="10" d="M418.898,81.899
	c1.158-3.598,4.542-6.215,8.549-6.215c4.957,0,8.964,4.014,8.964,8.981"/>
<path fill="none" stroke="#3165AF" stroke-width="2" stroke-miterlimit="10" d="M418.898,81.839
	c1.158-3.598,4.542-6.215,8.549-6.215c4.957,0,8.964,4.014,8.964,8.981"/>
<path fill="none" stroke="#3165AF" stroke-width="2" stroke-miterlimit="10" d="M450.273,86.984c0.393,0,0.712,0.32,0.712,0.714
	c0,0.394-0.319,0.713-0.712,0.713c-0.393,0-0.712-0.319-0.712-0.713C449.561,87.304,449.88,86.984,450.273,86.984"/>
<path fill="none" stroke="#3165AF" stroke-width="2" stroke-miterlimit="10" d="M419.194,86.805
	c0.505-0.595,0.801-1.368,0.801-2.201c0-1.903-1.543-3.419-3.413-3.419c-1.87,0-3.414,1.546-3.414,3.419h-0.089h-8.133"/>
<line fill="none" stroke="#3165AF" stroke-width="2" stroke-miterlimit="10" x1="441.754" y1="84.932" x2="433.443" y2="84.932"/>
<line fill="none" stroke="#3165AF" stroke-width="2" stroke-miterlimit="10" x1="447.988" y1="87.906" x2="437.302" y2="87.906"/>
<path fill="none" stroke="#3165AF" stroke-width="2" stroke-miterlimit="10" d="M517.279,144.631
	c1.409-4.381,5.529-7.567,10.408-7.567c6.035,0,10.913,4.888,10.913,10.934"/>
<path fill="none" stroke="#3165AF" stroke-width="2" stroke-miterlimit="10" d="M517.279,144.523
	c1.409-4.381,5.529-7.567,10.408-7.567c6.035,0,10.913,4.888,10.913,10.934"/>
<path fill="none" stroke="#3165AF" stroke-width="2" stroke-miterlimit="10" d="M538.131,144.45c0.687-0.471,1.518-0.76,2.421-0.76
	c2.313,0,4.228,1.882,4.228,4.236h5.24"/>
<path fill="none" stroke="#3165AF" stroke-width="2" stroke-miterlimit="10" d="M497.223,147.165c0.479,0,0.867,0.389,0.867,0.869
	s-0.388,0.869-0.867,0.869c-0.479,0-0.867-0.389-0.867-0.869S496.744,147.165,497.223,147.165"/>
<path fill="none" stroke="#3165AF" stroke-width="2" stroke-miterlimit="10" d="M517.677,150.569
	c0.614-0.724,0.976-1.665,0.976-2.679c0-2.317-1.879-4.164-4.156-4.164c-2.313,0-4.156,1.883-4.156,4.164h-0.108h-9.902"/>
<path fill="none" stroke="#3165AF" stroke-width="2" stroke-miterlimit="10" d="M56.211,177.375
	c1.409-4.381,5.529-7.567,10.408-7.567c6.035,0,10.913,4.888,10.913,10.934"/>
<path fill="none" stroke="#3165AF" stroke-width="2" stroke-miterlimit="10" d="M56.211,177.267
	c1.409-4.381,5.529-7.567,10.408-7.567c6.035,0,10.913,4.888,10.913,10.934"/>
<path fill="none" stroke="#3165AF" stroke-width="2" stroke-miterlimit="10" d="M77.063,177.194c0.687-0.471,1.518-0.76,2.421-0.76
	c2.313,0,4.228,1.882,4.228,4.236h5.24"/>
<path fill="none" stroke="#3165AF" stroke-width="2" stroke-miterlimit="10" d="M36.155,179.91c0.479,0,0.867,0.389,0.867,0.869
	c0,0.48-0.388,0.869-0.867,0.869c-0.479,0-0.867-0.389-0.867-0.869C35.288,180.299,35.676,179.91,36.155,179.91"/>
<path fill="none" stroke="#3165AF" stroke-width="2" stroke-miterlimit="10" d="M56.609,183.313
	c0.614-0.724,0.976-1.665,0.976-2.679c0-2.317-1.879-4.164-4.156-4.164c-2.313,0-4.156,1.883-4.156,4.164h-0.108h-9.902"/>
<polygon fill="#EDEDED" points="318.165,204.771 316.063,135.155 318.165,135.155 318.165,133.316 318.953,133.316 318.953,130.951 
	318.165,130.951 318.165,129.113 316.195,129.113 314.356,120.371 312.517,129.113 310.415,129.113 310.415,130.951 
	309.627,130.951 309.627,133.316 310.415,133.316 310.415,135.155 312.517,135.155 310.415,204.771 295.573,204.771 
	305.818,215.016 322.631,215.016 333.008,204.771 "/>
<path fill="#EDEDED" d="M230.435,163.67c-5.796,4.603-7.501,8.353-7.501,8.353v9.206h-2.557v46.88h2.557h10.74h3.921v-77.224
	C237.595,153.783,236.231,159.067,230.435,163.67"/>
<polygon fill="#EDEDED" points="274.612,182.644 274.612,179.317 271.089,179.317 271.089,176.577 265.413,176.577 265.413,174.326 
	256.606,174.326 256.606,176.577 250.245,176.577 250.245,179.317 246.819,179.317 246.819,182.644 243.688,182.644 
	243.688,218.657 246.819,218.657 250.245,218.657 256.606,218.657 265.413,218.657 271.089,218.657 274.612,218.657 
	277.744,218.657 277.744,182.644 "/>
<polygon fill="#EDEDED" points="534.434,230.761 534.434,227.434 530.911,227.434 530.911,224.694 525.235,224.694 525.235,222.443 
	516.428,222.443 516.428,224.694 510.067,224.694 510.067,227.434 506.641,227.434 506.641,230.761 503.51,230.761 503.51,266.774 
	506.641,266.774 510.067,266.774 516.428,266.774 525.235,266.774 530.911,266.774 534.434,266.774 537.566,266.774 
	537.566,230.761 "/>
<path fill="#EDEDED" d="M139.015,258.744h-1.05c1.274-0.05,2.293-1.091,2.293-2.377v-0.489c0-1.317-1.068-2.386-2.385-2.386h-0.162
	c-0.557-0.457-1.032-1.06-1.437-1.741l-0.185-0.324c-1.731-3.169-2.077-7.728-2.077-7.728c0-4.157-2.476-7.838-5.953-10.13h0.111
	v-3.981h-5.544l-1.192-16.29h-1.027h-0.114h-1.026l-1.192,16.29h-5.544v3.981h0.11c-3.476,2.292-5.953,5.973-5.953,10.13
	c0,0-0.345,4.559-2.077,7.728l-0.185,0.324c-0.405,0.681-0.88,1.284-1.437,1.741h-0.161c-1.318,0-2.386,1.069-2.386,2.386v0.489
	c0,1.286,1.02,2.327,2.293,2.377h-1.05c-1.797,0-3.254,1.457-3.254,3.254v0.667c0,1.797,1.457,3.254,3.254,3.254h18.607h0.117
	h18.606c1.798,0,3.254-1.457,3.254-3.254v-0.667C142.269,260.201,140.813,258.744,139.015,258.744"/>
<rect x="449.252" y="191.217" fill="#EDEDED" width="12.593" height="71.648"/>
<rect x="503.742" y="207.35" fill="#EDEDED" width="12.593" height="71.648"/>
<rect x="459.114" y="204.789" fill="#EDEDED" width="13.288" height="58.076"/>
<rect x="401.954" y="213.504" fill="#EDEDED" width="15.562" height="48.417"/>
<rect x="465.758" y="233.827" fill="#EDEDED" width="22.973" height="33.854"/>
<rect x="22.41" y="302.299" fill="#EDEDED" width="60.328" height="11.997"/>
<rect x="44.68" y="268.489" fill="#EDEDED" width="14.534" height="33.81"/>
<rect x="52.574" y="247.135" fill="#EDEDED" width="21.465" height="57.685"/>
<rect x="423.598" y="196.977" fill="#EDEDED" width="11.765" height="45.429"/>
<path fill="#EDEDED" d="M1084.348,1018.799c0,429.1-347.854,776.954-776.954,776.954c-429.099,0-776.953-347.854-776.953-776.954
	s347.854-776.954,776.953-776.954C736.494,241.845,1084.348,589.698,1084.348,1018.799"/>
<rect x="68.993" y="291.992" fill="#EDEDED" width="46.541" height="43.286"/>
<rect x="62.12" y="291.992" fill="#EDEDED" width="57.663" height="6.228"/>
<rect x="77.24" y="272.748" fill="#EDEDED" width="71.72" height="6.228"/>
<rect x="526.723" y="287.181" fill="#EDEDED" width="60.398" height="50.24"/>
<rect x="520.538" y="287.181" fill="#EDEDED" width="72.625" height="6.228"/>
<rect x="82.738" y="272.748" fill="#EDEDED" width="61.692" height="55.135"/>
<rect x="517.702" y="270.216" fill="#EDEDED" width="61.191" height="60.2"/>
<rect x="92.36" y="265.919" fill="#EDEDED" width="58.419" height="16.537"/>
<rect x="129.474" y="260.377" fill="#EDEDED" width="33.19" height="16.343"/>
<rect x="264.868" y="215.017" fill="#EDEDED" width="109.846" height="89.886"/>
<rect x="242.188" y="201.958" fill="#EDEDED" width="37.059" height="89.886"/>
<rect x="418.659" y="240.446" fill="#EDEDED" width="58.824" height="91.261"/>
<rect x="344.593" y="223.264" fill="#EDEDED" width="54.539" height="89.886"/>
<rect x="231.191" y="221.889" fill="#EDEDED" width="35.739" height="94.434"/>
<rect x="188.58" y="226.012" fill="#EDEDED" width="56.752" height="112.032"/>
<rect x="167.274" y="201.27" fill="#EDEDED" width="25.269" height="132.721"/>
<rect x="429.129" y="229.449" fill="#EDEDED" width="23.085" height="65.216"/>
<rect x="382.394" y="231.511" fill="#EDEDED" width="36.75" height="65.216"/>
<rect x="468.992" y="253.504" fill="#EDEDED" width="36.75" height="65.216"/>
<rect x="336.346" y="204.707" fill="#EDEDED" width="23.085" height="65.216"/>
<rect x="150.779" y="212.268" fill="#EDEDED" width="71.091" height="118.674"/>
<rect x="493.734" y="246.632" fill="#EDEDED" width="63.189" height="61.104"/>
<g>
	<path fill="none" stroke="#3165AF" stroke-width="2" stroke-miterlimit="10" d="M402.837,265.891c0.25-3.056,2.45-8.616,5.15-8.616
		c2.5,0,4.6,4.909,5.05,8.015c3.6,1.703,6.15,5.41,6.15,9.668c0,0.35,0,0.751-0.05,1.102c1.45,1.001,2.4,2.654,2.4,4.558
		c0,3.005-2.45,5.46-5.45,5.46c-1.3,0-2.55-0.451-3.45-1.252c-1.25,0.5-2.65,0.801-4.05,0.801c-5.9,0-10.65-4.809-10.65-10.669
		C397.837,271.151,399.837,267.794,402.837,265.891"/>
	<path fill="none" stroke="#3165AF" stroke-width="2" stroke-miterlimit="10" d="M402.837,265.891c0.25-3.056,2.45-8.616,5.15-8.616
		c2.5,0,4.6,4.909,5.05,8.015c3.6,1.703,6.15,5.41,6.15,9.668c0,0.35,0,0.751-0.05,1.102c1.45,1.001,2.4,2.654,2.4,4.558
		c0,3.005-2.45,5.46-5.45,5.46c-1.3,0-2.55-0.451-3.45-1.252c-1.25,0.5-2.65,0.801-4.05,0.801c-5.9,0-10.65-4.809-10.65-10.669
		C397.837,271.151,399.837,267.794,402.837,265.891z"/>
	<line fill="none" stroke="#3165AF" stroke-width="2" stroke-miterlimit="10" x1="408.487" y1="267.845" x2="408.487" y2="297.9"/>
	<line fill="none" stroke="#3165AF" stroke-width="2" stroke-miterlimit="10" x1="408.487" y1="267.845" x2="408.487" y2="297.9"/>
	<path fill="none" stroke="#3165AF" stroke-width="2" stroke-miterlimit="10" d="M413.337,276.31c0,0,0,5.31-5.3,5.31"/>
	<path fill="none" stroke="#3165AF" stroke-width="2" stroke-miterlimit="10" d="M413.337,276.31c0,0,0,5.31-5.3,5.31"/>
	<path fill="none" stroke="#3165AF" stroke-width="2" stroke-miterlimit="10" d="M408.037,278.013c0,0-5.15-0.501-5.15-6.412"/>
	<path fill="none" stroke="#3165AF" stroke-width="2" stroke-miterlimit="10" d="M408.037,278.013c0,0-5.15-0.501-5.15-6.412"/>
</g>
<g>
	<path fill="none" stroke="#3165AF" stroke-width="2" stroke-miterlimit="10" d="M502.113,282.682c2.75-2.505,4.8-5.861,6.15-8.415
		c0.75-1.453,2.8-1.453,3.55,0c1.35,2.554,3.4,5.86,6.15,8.415c1.35,1.252,0.45,3.456-1.35,3.456h-13.1
		C501.663,286.138,500.763,283.884,502.113,282.682"/>
	<path fill="#EDEDED" stroke="#3165AF" stroke-width="2" stroke-miterlimit="10" d="M502.113,282.682
		c2.75-2.505,4.8-5.861,6.15-8.415c0.75-1.453,2.8-1.453,3.55,0c1.35,2.554,3.4,5.86,6.15,8.415c1.35,1.252,0.45,3.456-1.35,3.456
		h-13.1C501.663,286.138,500.763,283.884,502.113,282.682z"/>
	<path fill="none" stroke="#3165AF" stroke-width="2" stroke-miterlimit="10" d="M504.663,273.215c1.55-1.603,2.75-3.506,3.65-5.109
		c0.75-1.353,2.75-1.353,3.5,0c0.9,1.603,2.1,3.506,3.65,5.109c1.25,1.302,0.35,3.406-1.4,3.406h-7.95
		C504.263,276.621,503.413,274.517,504.663,273.215"/>
	<path fill="#EDEDED" stroke="#3165AF" stroke-width="2" stroke-miterlimit="10" d="M504.663,273.215
		c1.55-1.603,2.75-3.506,3.65-5.109c0.75-1.353,2.75-1.353,3.5,0c0.9,1.603,2.1,3.506,3.65,5.109c1.25,1.302,0.35,3.406-1.4,3.406
		h-7.95C504.263,276.621,503.413,274.517,504.663,273.215z"/>
	<path fill="none" stroke="#3165AF" stroke-width="2" stroke-miterlimit="10" d="M506.213,265.251c0.85-0.952,1.55-2.054,2.1-3.005
		c0.75-1.353,2.7-1.353,3.45,0c0.55,1.001,1.25,2.053,2.1,3.005c1.1,1.302,0.25,3.356-1.5,3.356h-4.7
		C505.963,268.607,505.063,266.603,506.213,265.251"/>
	<path fill="#EDEDED" stroke="#3165AF" stroke-width="2" stroke-miterlimit="10" d="M506.213,265.251
		c0.85-0.952,1.55-2.054,2.1-3.005c0.75-1.353,2.7-1.353,3.45,0c0.55,1.001,1.25,2.053,2.1,3.005c1.1,1.302,0.25,3.356-1.5,3.356
		h-4.7C505.963,268.607,505.063,266.603,506.213,265.251z"/>
	
		<line fill="none" stroke="#3165AF" stroke-width="2" stroke-miterlimit="10" x1="509.913" y1="281.881" x2="509.913" y2="298.411"/>
	
		<line fill="none" stroke="#3165AF" stroke-width="2" stroke-miterlimit="10" x1="509.913" y1="281.881" x2="509.913" y2="298.411"/>
</g>
<path fill="#EDEDED" d="M468.992,272.757c1.27,0,2.3,1.032,2.3,2.304c0,1.273-1.03,2.304-2.3,2.304c-1.27,0-2.3-1.031-2.3-2.304
	C466.692,273.789,467.722,272.757,468.992,272.757"/>
<line fill="#EDEDED" x1="70.697" y1="330.483" x2="70.697" y2="325.474"/>
<g>
	<path fill="none" stroke="#3165AF" stroke-width="2" stroke-miterlimit="10" d="M107.684,264.185c0.25-3.056,2.45-8.616,5.15-8.616
		c2.5,0,4.6,4.909,5.05,8.015c3.6,1.703,6.15,5.41,6.15,9.668c0,0.35,0,0.751-0.05,1.102c1.45,1.001,2.4,2.654,2.4,4.558
		c0,3.005-2.45,5.46-5.45,5.46c-1.3,0-2.55-0.451-3.45-1.252c-1.25,0.5-2.65,0.801-4.05,0.801c-5.9,0-10.65-4.809-10.65-10.669
		C102.684,269.445,104.684,266.088,107.684,264.185"/>
	<path fill="none" stroke="#3165AF" stroke-width="2" stroke-miterlimit="10" d="M107.684,264.185c0.25-3.056,2.45-8.616,5.15-8.616
		c2.5,0,4.6,4.909,5.05,8.015c3.6,1.703,6.15,5.41,6.15,9.668c0,0.35,0,0.751-0.05,1.102c1.45,1.001,2.4,2.654,2.4,4.558
		c0,3.005-2.45,5.46-5.45,5.46c-1.3,0-2.55-0.451-3.45-1.252c-1.25,0.5-2.65,0.801-4.05,0.801c-5.9,0-10.65-4.809-10.65-10.669
		C102.684,269.445,104.684,266.088,107.684,264.185z"/>
	
		<line fill="none" stroke="#3165AF" stroke-width="2" stroke-miterlimit="10" x1="113.334" y1="266.139" x2="113.334" y2="296.194"/>
	
		<line fill="none" stroke="#3165AF" stroke-width="2" stroke-miterlimit="10" x1="113.334" y1="266.139" x2="113.334" y2="296.194"/>
	<path fill="none" stroke="#3165AF" stroke-width="2" stroke-miterlimit="10" d="M112.884,276.307c0,0-5.15-0.501-5.15-6.412"/>
	<path fill="none" stroke="#3165AF" stroke-width="2" stroke-miterlimit="10" d="M112.884,276.307c0,0-5.15-0.501-5.15-6.412"/>
	<path fill="none" stroke="#3165AF" stroke-width="2" stroke-miterlimit="10" d="M150.593,304.072"/>
</g>
<path fill="#EDEDED" d="M80.047,313.102c0,0.664,0.537,1.202,1.2,1.202c0.663,0,1.2-0.538,1.2-1.202s-0.537-1.202-1.2-1.202
	C80.584,311.9,80.047,312.438,80.047,313.102"/>
<polyline fill="#EDEDED" points="79.047,315.606 74.197,320.465 74.097,320.565 "/>
<path fill="#EDEDED" d="M78.147,324.923l-9-9.016c-2.45,2.454-2.5,6.511,0,9.016S75.697,327.377,78.147,324.923"/>
<rect x="194.985" y="260.338" transform="matrix(1 0.0027 -0.0027 1 0.7514 -0.6835)" fill="#EDEDED" width="109.9" height="27.35"/>
<rect x="191.28" y="256.132" fill="#EDEDED" width="116.75" height="4.208"/>
<rect x="234.73" y="274.265" fill="#EDEDED" width="15.5" height="13.424"/>
<line fill="#EDEDED" x1="299.98" y1="274.866" x2="304.48" y2="274.866"/>
<rect x="214.88" y="266" fill="#EDEDED" width="10.7" height="12.773"/>
<rect x="215.63" y="266.751" fill="#EDEDED" width="9.2" height="3.306"/>
<rect x="262.43" y="266" fill="#EDEDED" width="10.7" height="12.773"/>
<rect x="263.18" y="266.751" fill="#EDEDED" width="9.2" height="3.306"/>
<rect x="281.08" y="266" fill="#EDEDED" width="10.7" height="12.773"/>
<rect x="281.83" y="266.751" fill="#EDEDED" width="9.2" height="3.306"/>
<line fill="#EDEDED" x1="194.98" y1="266.2" x2="198.98" y2="266.2"/>
<line fill="#EDEDED" x1="242.73" y1="274.114" x2="242.73" y2="287.639"/>
<g>
	<path fill="none" stroke="#3165AF" stroke-width="2" stroke-miterlimit="10" d="M146.874,290.641h-16.4c-0.55,0-1,0.451-1,1.002
		v1.002c0,0.551,0.45,1.001,1,1.001h16.4c0.55,0,1-0.45,1-1.001v-1.002C147.874,291.092,147.424,290.641,146.874,290.641"/>
	<path fill="none" stroke="#3165AF" stroke-width="2" stroke-miterlimit="10" d="M146.874,290.641h-16.4c-0.55,0-1,0.451-1,1.002
		v1.002c0,0.551,0.45,1.001,1,1.001h16.4c0.55,0,1-0.45,1-1.001v-1.002C147.874,291.092,147.424,290.641,146.874,290.641z"/>
	
		<line fill="none" stroke="#3165AF" stroke-width="2" stroke-miterlimit="10" x1="131.024" y1="293.897" x2="131.024" y2="296.902"/>
	
		<line fill="none" stroke="#3165AF" stroke-width="2" stroke-miterlimit="10" x1="131.024" y1="293.897" x2="131.024" y2="296.902"/>
	
		<line fill="none" stroke="#3165AF" stroke-width="2" stroke-miterlimit="10" x1="146.524" y1="293.897" x2="146.524" y2="296.902"/>
	
		<line fill="none" stroke="#3165AF" stroke-width="2" stroke-miterlimit="10" x1="146.524" y1="293.897" x2="146.524" y2="296.902"/>
	
		<rect x="130.874" y="284.479" fill="none" stroke="#3165AF" stroke-width="2" stroke-miterlimit="10" width="15.55" height="6.161"/>
	
		<rect x="130.874" y="284.479" fill="none" stroke="#3165AF" stroke-width="2" stroke-miterlimit="10" width="15.55" height="6.161"/>
</g>
<g>
	<path fill="none" stroke="#3165AF" stroke-width="2" stroke-miterlimit="10" d="M361.256,289.956h-16.4c-0.55,0-1,0.451-1,1.002
		v1.002c0,0.551,0.45,1.001,1,1.001h16.4c0.55,0,1-0.45,1-1.001v-1.002C362.256,290.407,361.806,289.956,361.256,289.956"/>
	<path fill="none" stroke="#3165AF" stroke-width="2" stroke-miterlimit="10" d="M361.256,289.956h-16.4c-0.55,0-1,0.451-1,1.002
		v1.002c0,0.551,0.45,1.001,1,1.001h16.4c0.55,0,1-0.45,1-1.001v-1.002C362.256,290.407,361.806,289.956,361.256,289.956z"/>
	
		<line fill="none" stroke="#3165AF" stroke-width="2" stroke-miterlimit="10" x1="345.406" y1="293.212" x2="345.406" y2="296.217"/>
	
		<line fill="none" stroke="#3165AF" stroke-width="2" stroke-miterlimit="10" x1="345.406" y1="293.212" x2="345.406" y2="296.217"/>
	
		<line fill="none" stroke="#3165AF" stroke-width="2" stroke-miterlimit="10" x1="360.906" y1="293.212" x2="360.906" y2="296.217"/>
	
		<line fill="none" stroke="#3165AF" stroke-width="2" stroke-miterlimit="10" x1="360.906" y1="293.212" x2="360.906" y2="296.217"/>
	
		<rect x="345.257" y="283.795" fill="none" stroke="#3165AF" stroke-width="2" stroke-miterlimit="10" width="15.55" height="6.161"/>
	
		<rect x="345.257" y="283.795" fill="none" stroke="#3165AF" stroke-width="2" stroke-miterlimit="10" width="15.55" height="6.161"/>
	<path fill="#EDEDED" stroke="#F8A122" stroke-width="2" d="M371.299,282.379c0.994,0,1.8,0.807,1.8,1.803s-0.806,1.804-1.8,1.804
		c-0.994,0-1.8-0.808-1.8-1.804S370.305,282.379,371.299,282.379"/>
	<path fill="#EDEDED" stroke="#F8A122" stroke-width="2" d="M373.699,290.795c0-1.403-1.1-2.555-2.5-2.555
		c-1.4,0-2.5,1.102-2.5,2.505v1.553h5V290.795z"/>
	<line fill="#EDEDED" stroke="#F8A122" stroke-width="2" x1="368.699" y1="292.498" x2="368.699" y2="296.505"/>
	<line fill="#EDEDED" stroke="#F8A122" stroke-width="2" x1="373.699" y1="292.498" x2="373.699" y2="296.505"/>
	<path fill="#EDEDED" stroke="#F8A122" stroke-width="2" d="M382.799,278.873c0.994,0,1.8,0.807,1.8,1.803
		c0,0.996-0.806,1.804-1.8,1.804c-0.994,0-1.8-0.808-1.8-1.804C380.999,279.68,381.805,278.873,382.799,278.873"/>
	<path fill="#EDEDED" stroke="#F8A122" stroke-width="2" d="M385.199,287.288c0-1.403-1.1-2.555-2.5-2.555
		c-1.4,0-2.5,1.102-2.5,2.505v5.059h5V287.288z"/>
	<line fill="#EDEDED" stroke="#F8A122" stroke-width="2" x1="380.199" y1="292.498" x2="380.199" y2="296.505"/>
	<line fill="#EDEDED" stroke="#F8A122" stroke-width="2" x1="385.199" y1="292.498" x2="385.199" y2="296.505"/>
</g>
<g>
	<path fill="#EDEDED" stroke="#F8A122" stroke-width="2" d="M186.286,278.392c0.994,0,1.8,0.807,1.8,1.803
		c0,0.996-0.806,1.804-1.8,1.804c-0.994,0-1.8-0.808-1.8-1.804C184.486,279.199,185.292,278.392,186.286,278.392"/>
	<circle fill="#EDEDED" stroke="#F8A122" stroke-width="2" cx="186.286" cy="280.195" r="1.804"/>
	<path fill="#EDEDED" stroke="#F8A122" stroke-width="2" d="M188.686,286.807c0-1.403-1.1-2.555-2.5-2.555
		c-1.4,0-2.5,1.102-2.5,2.505v5.059h5V286.807z"/>
	<path fill="#EDEDED" stroke="#F8A122" stroke-width="2" d="M188.686,286.807c0-1.403-1.1-2.555-2.5-2.555
		c-1.4,0-2.5,1.102-2.5,2.505v5.059h5V286.807z"/>
	<line fill="#EDEDED" stroke="#F8A122" stroke-width="2" x1="183.686" y1="292.016" x2="183.686" y2="296.023"/>
	<line fill="#EDEDED" stroke="#F8A122" stroke-width="2" x1="183.686" y1="292.016" x2="183.686" y2="296.023"/>
	<line fill="#EDEDED" stroke="#F8A122" stroke-width="2" x1="188.686" y1="292.016" x2="188.686" y2="296.023"/>
	<line fill="#EDEDED" stroke="#F8A122" stroke-width="2" x1="188.686" y1="292.016" x2="188.686" y2="296.023"/>
	<line fill="#EDEDED" stroke="#F8A122" stroke-width="2" x1="188.436" y1="286.757" x2="193.936" y2="286.757"/>
	<line fill="#EDEDED" stroke="#F8A122" stroke-width="2" x1="188.436" y1="286.757" x2="193.936" y2="286.757"/>
	<path fill="#EDEDED" stroke="#F8A122" stroke-width="2" d="M183.686,286.707c0,0-2.9,0.351-2.9,5.059"/>
	<path fill="#EDEDED" stroke="#F8A122" stroke-width="2" d="M183.686,286.707c0,0-2.9,0.351-2.9,5.059"/>
	<path fill="#EDEDED" stroke="#F8A122" stroke-width="2" d="M207.036,278.75c0.994,0,1.8,0.807,1.8,1.803s-0.806,1.804-1.8,1.804
		c-0.994,0-1.8-0.808-1.8-1.804S206.042,278.75,207.036,278.75"/>
	<circle fill="#EDEDED" stroke="#F8A122" stroke-width="2" cx="207.036" cy="280.554" r="1.804"/>
	<path fill="#EDEDED" stroke="#F8A122" stroke-width="2" d="M208.315,286.588c0,0,4.546,1.48,4.86,5.591"/>
	<path fill="#EDEDED" stroke="#F8A122" stroke-width="2" d="M208.315,286.588c0,0,4.546,1.48,4.86,5.591"/>
	<path fill="#EDEDED" stroke="#F8A122" stroke-width="2" d="M203.901,286.592c0,0-3.771-0.026-4.427-6.115"/>
	<path fill="#EDEDED" stroke="#F8A122" stroke-width="2" d="M203.901,286.592c0,0-3.771-0.026-4.427-6.115"/>
	<path fill="#EDEDED" stroke="#F8A122" stroke-width="2" d="M209.536,287.166c0-1.403-1.1-2.555-2.5-2.555
		c-1.4,0-2.5,1.102-2.5,2.505v5.059h5V287.166z"/>
	<path fill="#EDEDED" stroke="#F8A122" stroke-width="2" d="M209.536,287.166c0-1.403-1.1-2.555-2.5-2.555
		c-1.4,0-2.5,1.102-2.5,2.505v5.059h5V287.166z"/>
	<line fill="#EDEDED" stroke="#F8A122" stroke-width="2" x1="204.536" y1="292.016" x2="204.536" y2="296.023"/>
	<line fill="#EDEDED" stroke="#F8A122" stroke-width="2" x1="204.536" y1="292.016" x2="204.536" y2="296.023"/>
	<line fill="#EDEDED" stroke="#F8A122" stroke-width="2" x1="209.536" y1="292.016" x2="209.536" y2="296.023"/>
	<line fill="#EDEDED" stroke="#F8A122" stroke-width="2" x1="209.536" y1="292.016" x2="209.536" y2="296.023"/>
	<path fill="#EDEDED" stroke="#F8A122" stroke-width="2" d="M196.991,271.997l3.044-0.283c0.175-0.017,0.168,0.016,0.19,0.262
		l0.634,6.811c0.012,0.152-0.024,0.121-0.174,0.136l-3.033,0.282c-0.154,0.013-0.154,0.049-0.17-0.105l-0.64-6.928
		c-0.014-0.153,0.005-0.162,0.159-0.176"/>
	<path fill="#EDEDED" stroke="#F8A122" stroke-width="2" d="M196.991,271.997l3.044-0.283c0.175-0.017,0.168,0.016,0.19,0.262
		l0.634,6.811c0.012,0.152-0.024,0.121-0.174,0.136l-3.033,0.282c-0.154,0.013-0.154,0.049-0.17-0.105l-0.64-6.928
		c-0.014-0.153,0.005-0.162,0.159-0.176"/>
</g>
<polygon fill="#EDEDED" points="378.948,266.583 336.145,266.348 336.203,245.025 379.006,245.26 "/>
<rect x="333.225" y="241.862" fill="#EDEDED" width="48.143" height="3.281"/>
<rect x="360.356" y="249.555" fill="#EDEDED" width="8.342" height="9.959"/>
<rect x="360.941" y="250.141" fill="#EDEDED" width="7.173" height="2.578"/>
<rect x="342.206" y="255.921" fill="#EDEDED" width="12.085" height="10.466"/>
<line fill="#EDEDED" x1="348.443" y1="255.803" x2="348.443" y2="266.348"/>
<polyline fill="none" stroke="#3165AF" stroke-width="2" stroke-miterlimit="10" points="6,305 612,305 612,348 -29,348 "/>
<g>
	<g>
		<line fill="none" stroke="#3165AF" stroke-width="2" stroke-miterlimit="10" x1="9" y1="325" x2="15" y2="325"/>
		
			<line fill="none" stroke="#3165AF" stroke-width="2" stroke-miterlimit="10" stroke-dasharray="12,12" x1="27" y1="325" x2="602" y2="325"/>
	</g>
</g>
<path fill="none" stroke="#3165AF" stroke-width="2" stroke-miterlimit="10" stroke-dasharray="12" d="M2,304"/>
<g>
	<g>
		<path fill="#EDEDED" d="M240.055,314.895v-22.641c0-2.204,1.8-4.008,4-4.008h33.55c1.1,0,2.15,0.601,2.65,1.603l4.8,9.267l9,3.757
			v12.022H240.055z"/>
		<path fill="#EDEDED" stroke="#F8A122" stroke-width="2" d="M240.055,314.895v-22.641c0-2.204,1.8-4.008,4-4.008h33.55
			c1.1,0,2.15,0.601,2.65,1.603l4.8,9.267l9,3.757v12.022H240.055z"/>
		<path fill="#EDEDED" d="M244.855,314.494c0,2.905,2.351,5.26,5.25,5.26c2.9,0,5.25-2.355,5.25-5.26s-2.35-5.26-5.25-5.26
			C247.206,309.234,244.855,311.589,244.855,314.494"/>
		<ellipse fill="#EDEDED" stroke="#F8A122" stroke-width="2" cx="250.105" cy="314.494" rx="5.25" ry="5.26"/>
		<path fill="#EDEDED" d="M277.355,314.494c0,2.905,2.351,5.26,5.25,5.26c2.9,0,5.25-2.355,5.25-5.26s-2.35-5.26-5.25-5.26
			C279.706,309.234,277.355,311.589,277.355,314.494"/>
		<ellipse fill="#EDEDED" stroke="#F8A122" stroke-width="2" cx="282.605" cy="314.494" rx="5.25" ry="5.26"/>
		<path fill="#EDEDED" d="M280.505,314.494c0,1.162,0.94,2.104,2.1,2.104s2.1-0.942,2.1-2.104c0-1.162-0.94-2.104-2.1-2.104
			S280.505,313.332,280.505,314.494"/>
		<circle fill="none" stroke="#F8A122" stroke-width="2" cx="282.605" cy="314.494" r="2.1"/>
		<path fill="#EDEDED" d="M248.005,314.494c0,1.162,0.94,2.104,2.1,2.104s2.1-0.942,2.1-2.104c0-1.162-0.94-2.104-2.1-2.104
			S248.005,313.332,248.005,314.494"/>
		<circle fill="none" stroke="#F8A122" stroke-width="2" cx="250.105" cy="314.494" r="2.1"/>
		<path fill="#EDEDED" d="M292.305,315.396c-0.55,0-1-0.451-1-1.002v-2.354c0-0.551,0.45-1.002,1-1.002h3c0.55,0,1,0.451,1,1.002
			v2.354c0,0.551-0.45,1.002-1,1.002H292.305z"/>
		<path fill="#EDEDED" stroke="#F8A122" stroke-width="2" d="M292.305,315.396c-0.55,0-1-0.451-1-1.002v-2.354
			c0-0.551,0.45-1.002,1-1.002h3c0.55,0,1,0.451,1,1.002v2.354c0,0.551-0.45,1.002-1,1.002H292.305z"/>
		<path fill="#EDEDED" d="M238.555,315.997c-0.55,0-1-0.451-1-1.002v-2.354c0-0.551,0.45-1.002,1-1.002h3c0.55,0,1,0.451,1,1.002
			v2.354c0,0.551-0.45,1.002-1,1.002H238.555z"/>
		<path fill="#EDEDED" stroke="#F8A122" stroke-width="2" d="M238.555,315.997c-0.55,0-1-0.451-1-1.002v-2.354
			c0-0.551,0.45-1.002,1-1.002h3c0.55,0,1,0.451,1,1.002v2.354c0,0.551-0.45,1.002-1,1.002H238.555z"/>
	</g>
	<g>
		<g>
			<linearGradient id="SVGID_1_" gradientUnits="userSpaceOnUse" x1="266.595" y1="302.1566" x2="266.595" y2="294.8174">
				<stop  offset="0" style="stop-color:#F57F17"/>
				<stop  offset="1" style="stop-color:#FBC02D"/>
			</linearGradient>
			<path fill="url(#SVGID_1_)" d="M264.155,302.1c2.172-1.039,4.347-2.07,6.524-3.098c0.345-0.163,0.611-0.365,0.586-0.789
				c-0.02-0.344-0.236-0.548-0.704-0.675c-0.287-0.078-0.574-0.157-0.86-0.235l-6.449-1.707c0,0-1.274-0.339-1.298-1.361
				l-0.03-0.438c0.006,0.288,0.011,0.577,0.011,0.865c0.002,2.03,0.004,4.06-0.002,6.089c-0.001,0.562,0.192,1.011,0.684,1.324
				C263.119,302.399,263.627,302.352,264.155,302.1z"/>
			<linearGradient id="SVGID_2_" gradientUnits="userSpaceOnUse" x1="264.4744" y1="296.8704" x2="264.4744" y2="292.5743">
				<stop  offset="0" style="stop-color:#364099"/>
				<stop  offset="1" style="stop-color:#2C87C4"/>
			</linearGradient>
			<path fill="url(#SVGID_2_)" d="M263.252,295.595c0,0,4.591,1.197,3.658,0.956c-0.443-0.115-0.79-0.338-1.083-0.684
				c-0.852-1.009-1.717-2.008-2.572-3.015c-0.23-0.271-0.502-0.395-0.845-0.275c-0.358,0.126-0.501,0.407-0.495,0.775
				c0.002,0.148,0.005,0.297,0.008,0.445l0.03,0.438C261.978,295.256,263.252,295.595,263.252,295.595z"/>
		</g>
		<g>
			<linearGradient id="SVGID_3_" gradientUnits="userSpaceOnUse" x1="256.5419" y1="307.6406" x2="256.5419" y2="303.5828">
				<stop  offset="0" style="stop-color:#F57F17"/>
				<stop  offset="1" style="stop-color:#FBC02D"/>
			</linearGradient>
			<path fill="url(#SVGID_3_)" d="M256.996,303.969c0,0.128-0.044,0.236-0.133,0.324c-0.089,0.089-0.196,0.133-0.322,0.133
				c-0.126,0-0.233-0.044-0.322-0.133c-0.089-0.089-0.133-0.197-0.133-0.324c0-0.128,0.044-0.236,0.133-0.324
				c0.089-0.089,0.196-0.133,0.322-0.133c0.126,0,0.233,0.044,0.322,0.133C256.952,303.733,256.996,303.841,256.996,303.969z
				 M256.167,307.662v-2.944h0.749v2.944H256.167z"/>
			<linearGradient id="SVGID_4_" gradientUnits="userSpaceOnUse" x1="258.764" y1="307.6406" x2="258.764" y2="303.5828">
				<stop  offset="0" style="stop-color:#F57F17"/>
				<stop  offset="1" style="stop-color:#FBC02D"/>
			</linearGradient>
			<path fill="url(#SVGID_4_)" d="M258.134,307.662h-0.749v-3.933h0.749v2.248l0.994-1.26h1.015l-1.307,1.488l1.307,1.456h-0.999
				l-1.01-1.228V307.662z"/>
			<linearGradient id="SVGID_5_" gradientUnits="userSpaceOnUse" x1="260.8681" y1="307.6406" x2="260.8681" y2="303.5828">
				<stop  offset="0" style="stop-color:#F57F17"/>
				<stop  offset="1" style="stop-color:#FBC02D"/>
			</linearGradient>
			<path fill="url(#SVGID_5_)" d="M260.493,307.662v-3.933h0.749v3.933H260.493z"/>
			<linearGradient id="SVGID_6_" gradientUnits="userSpaceOnUse" x1="263.1386" y1="307.6406" x2="263.1386" y2="303.5828">
				<stop  offset="0" style="stop-color:#F57F17"/>
				<stop  offset="1" style="stop-color:#FBC02D"/>
			</linearGradient>
			<path fill="url(#SVGID_6_)" d="M262.004,307.277c-0.264-0.285-0.396-0.649-0.396-1.092c0-0.443,0.131-0.805,0.393-1.087
				c0.262-0.282,0.595-0.422,0.999-0.422c0.404,0,0.712,0.167,0.925,0.5v-0.457h0.744v2.944h-0.744v-0.494
				c-0.223,0.358-0.533,0.537-0.93,0.537C262.598,307.705,262.268,307.562,262.004,307.277z M263.691,306.825
				c0.156-0.154,0.234-0.366,0.234-0.635c0-0.269-0.078-0.481-0.234-0.635c-0.156-0.154-0.338-0.231-0.547-0.231
				c-0.209,0-0.391,0.076-0.545,0.229c-0.154,0.152-0.231,0.363-0.231,0.632c0,0.269,0.078,0.482,0.234,0.638
				c0.156,0.156,0.337,0.234,0.545,0.234C263.354,307.056,263.535,306.979,263.691,306.825z"/>
			<linearGradient id="SVGID_7_" gradientUnits="userSpaceOnUse" x1="266.4733" y1="307.6406" x2="266.4733" y2="303.5828">
				<stop  offset="0" style="stop-color:#F57F17"/>
				<stop  offset="1" style="stop-color:#FBC02D"/>
			</linearGradient>
			<path fill="url(#SVGID_7_)" d="M265.82,304.718v0.441c0.188-0.322,0.492-0.484,0.914-0.484c0.337,0,0.611,0.111,0.824,0.332
				c0.213,0.221,0.319,0.529,0.319,0.922v1.733h-0.744v-1.626c0-0.23-0.058-0.407-0.175-0.529c-0.117-0.122-0.276-0.183-0.478-0.183
				c-0.202,0-0.362,0.061-0.481,0.183c-0.119,0.122-0.178,0.299-0.178,0.529v1.626h-0.749v-2.944H265.82z"/>
			<linearGradient id="SVGID_8_" gradientUnits="userSpaceOnUse" x1="269.7487" y1="309.0192" x2="269.7487" y2="304.6064">
				<stop  offset="0" style="stop-color:#364099"/>
				<stop  offset="1" style="stop-color:#2C87C4"/>
			</linearGradient>
			<path fill="url(#SVGID_8_)" d="M268.614,307.277c-0.264-0.285-0.396-0.649-0.396-1.092c0-0.443,0.131-0.805,0.393-1.087
				c0.262-0.282,0.595-0.422,0.999-0.422s0.712,0.167,0.925,0.5v-0.457h0.744v4.347h-0.744v-1.897
				c-0.223,0.358-0.533,0.537-0.93,0.537C269.208,307.705,268.878,307.562,268.614,307.277z M270.301,306.825
				c0.156-0.154,0.234-0.366,0.234-0.635c0-0.269-0.078-0.481-0.234-0.635c-0.156-0.154-0.338-0.231-0.547-0.231
				c-0.209,0-0.391,0.076-0.545,0.229c-0.154,0.152-0.231,0.363-0.231,0.632c0,0.269,0.078,0.482,0.234,0.638
				c0.156,0.156,0.337,0.234,0.545,0.234S270.145,306.979,270.301,306.825z"/>
			<linearGradient id="SVGID_9_" gradientUnits="userSpaceOnUse" x1="273.079" y1="309.0192" x2="273.079" y2="304.6064">
				<stop  offset="0" style="stop-color:#364099"/>
				<stop  offset="1" style="stop-color:#2C87C4"/>
			</linearGradient>
			<path fill="url(#SVGID_9_)" d="M273.733,304.718h0.749v2.944h-0.749v-0.446c-0.188,0.322-0.494,0.484-0.919,0.484
				c-0.333,0-0.606-0.111-0.818-0.332c-0.213-0.221-0.319-0.529-0.319-0.922v-1.727h0.744v1.621c0,0.23,0.058,0.408,0.175,0.531
				c0.117,0.124,0.276,0.186,0.478,0.186c0.202,0,0.362-0.062,0.481-0.186c0.119-0.124,0.178-0.301,0.178-0.531V304.718z"/>
		</g>
	</g>
</g>
<g>
	<g>
		<path fill="#EDEDED" stroke="#F8A122" stroke-width="2" d="M32.549,300.055v6.612c0,1.503,0.85,2.855,2.2,3.506l8,3.807h56.9
			l2.45-9.567c0.35-1.252,0-2.605-0.9-3.607l-10.25-11.12c-0.75-0.801-1.75-1.252-2.85-1.252h-51.65c-2.15,0-3.85,1.753-3.85,3.857
			v7.764H32.549z"/>
		<path fill="none" stroke="#F8A122" stroke-width="2" d="M99.499,299.054h-12.3c-0.55,0-0.95-0.451-0.95-0.952v-3.406
			c0-0.551,0.45-0.952,0.95-0.952h7.45"/>
		<ellipse fill="#EDEDED" stroke="#F8A122" stroke-width="2" cx="50.599" cy="313.53" rx="5.05" ry="5.059"/>
		<path fill="#EDEDED" stroke="#F8A122" stroke-width="2" d="M88.699,308.471c2.789,0,5.05,2.265,5.05,5.059
			s-2.261,5.059-5.05,5.059c-2.789,0-5.05-2.265-5.05-5.059S85.91,308.471,88.699,308.471"/>
		<circle fill="none" stroke="#F8A122" stroke-width="2" cx="88.699" cy="313.53" r="2.054"/>
		<circle fill="none" stroke="#F8A122" stroke-width="2" cx="50.599" cy="313.53" r="2.054"/>
		<path fill="#EDEDED" stroke="#F8A122" stroke-width="2" d="M98.099,314.382h2.8c0.55,0,1-0.451,1-1.002v-2.204
			c0-0.551-0.45-1.002-1-1.002h-2.8c-0.55,0-1,0.451-1,1.002v2.204C97.099,313.93,97.549,314.382,98.099,314.382"/>
		<line fill="#EDEDED" stroke="#F8A122" stroke-width="2" x1="101.849" y1="303.061" x2="85.349" y2="303.061"/>
		<path fill="#EDEDED" stroke="#398ACA" stroke-width="2" d="M32.349,303.061"/>
		<path fill="#EDEDED" stroke="#398ACA" stroke-width="2" d="M66.849,303.061"/>
	</g>
	<g>
		<g>
			<linearGradient id="SVGID_10_" gradientUnits="userSpaceOnUse" x1="70.3399" y1="303.3692" x2="70.3399" y2="296.03">
				<stop  offset="0" style="stop-color:#F57F17"/>
				<stop  offset="1" style="stop-color:#FBC02D"/>
			</linearGradient>
			<path fill="url(#SVGID_10_)" d="M67.9,303.312c2.172-1.039,4.347-2.07,6.524-3.098c0.345-0.163,0.611-0.365,0.586-0.789
				c-0.02-0.344-0.236-0.548-0.704-0.675c-0.287-0.078-0.574-0.157-0.86-0.235l-6.449-1.707c0,0-1.274-0.339-1.298-1.361
				l-0.03-0.438c0.006,0.288,0.011,0.577,0.011,0.865c0.002,2.03,0.004,4.06-0.002,6.089c-0.001,0.562,0.192,1.011,0.684,1.324
				C66.864,303.612,67.372,303.565,67.9,303.312z"/>
			<linearGradient id="SVGID_11_" gradientUnits="userSpaceOnUse" x1="68.2193" y1="298.083" x2="68.2193" y2="293.7869">
				<stop  offset="0" style="stop-color:#364099"/>
				<stop  offset="1" style="stop-color:#2C87C4"/>
			</linearGradient>
			<path fill="url(#SVGID_11_)" d="M66.997,296.808c0,0,4.591,1.197,3.658,0.956c-0.443-0.115-0.79-0.338-1.083-0.684
				c-0.852-1.009-1.717-2.008-2.572-3.015c-0.23-0.271-0.502-0.395-0.845-0.275c-0.358,0.126-0.501,0.407-0.495,0.775
				c0.002,0.148,0.005,0.297,0.008,0.445l0.03,0.438C65.723,296.469,66.997,296.808,66.997,296.808z"/>
		</g>
		<g>
			<linearGradient id="SVGID_12_" gradientUnits="userSpaceOnUse" x1="60.2868" y1="308.8532" x2="60.2868" y2="304.7953">
				<stop  offset="0" style="stop-color:#F57F17"/>
				<stop  offset="1" style="stop-color:#FBC02D"/>
			</linearGradient>
			<path fill="url(#SVGID_12_)" d="M60.741,305.181c0,0.128-0.044,0.236-0.133,0.324c-0.089,0.089-0.196,0.133-0.322,0.133
				c-0.126,0-0.233-0.044-0.322-0.133c-0.089-0.089-0.133-0.197-0.133-0.324c0-0.128,0.044-0.236,0.133-0.324
				c0.089-0.089,0.196-0.133,0.322-0.133c0.126,0,0.233,0.044,0.322,0.133C60.697,304.946,60.741,305.054,60.741,305.181z
				 M59.912,308.875v-2.944h0.749v2.944H59.912z"/>
			<linearGradient id="SVGID_13_" gradientUnits="userSpaceOnUse" x1="62.5089" y1="308.8532" x2="62.5089" y2="304.7953">
				<stop  offset="0" style="stop-color:#F57F17"/>
				<stop  offset="1" style="stop-color:#FBC02D"/>
			</linearGradient>
			<path fill="url(#SVGID_13_)" d="M61.879,308.875H61.13v-3.933h0.749v2.248l0.994-1.26h1.015l-1.307,1.488l1.307,1.456h-0.999
				l-1.01-1.228V308.875z"/>
			<linearGradient id="SVGID_14_" gradientUnits="userSpaceOnUse" x1="64.613" y1="308.8532" x2="64.613" y2="304.7953">
				<stop  offset="0" style="stop-color:#F57F17"/>
				<stop  offset="1" style="stop-color:#FBC02D"/>
			</linearGradient>
			<path fill="url(#SVGID_14_)" d="M64.238,308.875v-3.933h0.749v3.933H64.238z"/>
			<linearGradient id="SVGID_15_" gradientUnits="userSpaceOnUse" x1="66.8835" y1="308.8532" x2="66.8835" y2="304.7953">
				<stop  offset="0" style="stop-color:#F57F17"/>
				<stop  offset="1" style="stop-color:#FBC02D"/>
			</linearGradient>
			<path fill="url(#SVGID_15_)" d="M65.749,308.49c-0.264-0.285-0.396-0.649-0.396-1.092c0-0.443,0.131-0.805,0.393-1.087
				c0.262-0.282,0.595-0.422,0.999-0.422c0.404,0,0.712,0.167,0.925,0.5v-0.457h0.744v2.944H67.67v-0.494
				c-0.223,0.358-0.533,0.537-0.93,0.537C66.343,308.917,66.013,308.775,65.749,308.49z M67.436,308.038
				c0.156-0.154,0.234-0.366,0.234-0.635c0-0.269-0.078-0.481-0.234-0.635c-0.156-0.154-0.338-0.231-0.547-0.231
				c-0.209,0-0.391,0.076-0.545,0.229c-0.154,0.152-0.231,0.363-0.231,0.632c0,0.269,0.078,0.482,0.234,0.638
				c0.156,0.156,0.337,0.234,0.545,0.234C67.099,308.269,67.28,308.192,67.436,308.038z"/>
			<linearGradient id="SVGID_16_" gradientUnits="userSpaceOnUse" x1="70.2181" y1="308.8532" x2="70.2181" y2="304.7953">
				<stop  offset="0" style="stop-color:#F57F17"/>
				<stop  offset="1" style="stop-color:#FBC02D"/>
			</linearGradient>
			<path fill="url(#SVGID_16_)" d="M69.564,305.931v0.441c0.188-0.322,0.492-0.484,0.914-0.484c0.337,0,0.611,0.111,0.824,0.332
				c0.213,0.221,0.319,0.529,0.319,0.922v1.733h-0.744v-1.626c0-0.23-0.058-0.407-0.175-0.529c-0.117-0.122-0.276-0.183-0.478-0.183
				c-0.202,0-0.362,0.061-0.481,0.183c-0.119,0.122-0.178,0.299-0.178,0.529v1.626h-0.749v-2.944H69.564z"/>
			<linearGradient id="SVGID_17_" gradientUnits="userSpaceOnUse" x1="73.4936" y1="310.2318" x2="73.4936" y2="305.819">
				<stop  offset="0" style="stop-color:#364099"/>
				<stop  offset="1" style="stop-color:#2C87C4"/>
			</linearGradient>
			<path fill="url(#SVGID_17_)" d="M72.359,308.49c-0.264-0.285-0.396-0.649-0.396-1.092c0-0.443,0.131-0.805,0.393-1.087
				c0.262-0.282,0.595-0.422,0.999-0.422c0.404,0,0.712,0.167,0.925,0.5v-0.457h0.744v4.347H74.28v-1.897
				c-0.223,0.358-0.533,0.537-0.93,0.537C72.953,308.917,72.623,308.775,72.359,308.49z M74.046,308.038
				c0.156-0.154,0.234-0.366,0.234-0.635c0-0.269-0.078-0.481-0.234-0.635c-0.156-0.154-0.338-0.231-0.547-0.231
				c-0.209,0-0.391,0.076-0.545,0.229c-0.154,0.152-0.231,0.363-0.231,0.632c0,0.269,0.078,0.482,0.234,0.638
				c0.156,0.156,0.337,0.234,0.545,0.234C73.709,308.269,73.89,308.192,74.046,308.038z"/>
			<linearGradient id="SVGID_18_" gradientUnits="userSpaceOnUse" x1="76.8238" y1="310.2318" x2="76.8238" y2="305.819">
				<stop  offset="0" style="stop-color:#364099"/>
				<stop  offset="1" style="stop-color:#2C87C4"/>
			</linearGradient>
			<path fill="url(#SVGID_18_)" d="M77.478,305.931h0.749v2.944h-0.749v-0.446c-0.188,0.322-0.494,0.484-0.919,0.484
				c-0.333,0-0.606-0.111-0.818-0.332c-0.213-0.221-0.319-0.529-0.319-0.922v-1.727h0.744v1.621c0,0.23,0.058,0.408,0.175,0.531
				c0.117,0.124,0.276,0.186,0.478,0.186c0.202,0,0.362-0.062,0.481-0.186c0.119-0.124,0.178-0.301,0.178-0.531V305.931z"/>
		</g>
	</g>
</g>
<g>
	<path fill="#EDEDED" stroke="#F8A122" stroke-width="2" d="M448.079,323.044v6.612c0,1.503-0.85,2.855-2.2,3.506l-8,3.807h-56.9
		l-2.45-9.567c-0.35-1.252,0-2.605,0.9-3.607l10.25-11.12c0.75-0.801,1.75-1.252,2.85-1.252h51.65c2.15,0,3.85,1.753,3.85,3.857
		v7.764H448.079z"/>
	<path fill="none" stroke="#F8A122" stroke-width="2" d="M381.129,322.042h12.3c0.55,0,0.95-0.451,0.95-0.952v-3.406
		c0-0.551-0.45-0.952-0.95-0.952h-7.45"/>
	<path fill="#EDEDED" stroke="#F8A122" stroke-width="2" d="M430.029,331.459c-2.789,0-5.05,2.265-5.05,5.059
		c0,2.794,2.261,5.059,5.05,5.059c2.789,0,5.05-2.265,5.05-5.059C435.079,333.724,432.818,331.459,430.029,331.459"/>
	<path fill="#EDEDED" stroke="#F8A122" stroke-width="2" d="M391.929,331.459c-2.789,0-5.05,2.265-5.05,5.059
		c0,2.794,2.261,5.059,5.05,5.059c2.789,0,5.05-2.265,5.05-5.059C396.979,333.724,394.718,331.459,391.929,331.459"/>
	<path fill="#EDEDED" stroke="#F8A122" stroke-width="2" d="M391.929,334.465c-1.132,0-2.05,0.919-2.05,2.054
		c0,1.134,0.918,2.053,2.05,2.053c1.132,0,2.05-0.919,2.05-2.053C393.979,335.384,393.061,334.465,391.929,334.465"/>
	<path fill="#EDEDED" stroke="#F8A122" stroke-width="2" d="M430.029,334.465c-1.132,0-2.05,0.919-2.05,2.054
		c0,1.134,0.918,2.053,2.05,2.053c1.132,0,2.05-0.919,2.05-2.053C432.079,335.384,431.161,334.465,430.029,334.465"/>
	<path fill="#EDEDED" stroke="#F8A122" stroke-width="2" d="M382.529,337.37h-2.8c-0.55,0-1-0.451-1-1.002v-2.204
		c0-0.551,0.45-1.002,1-1.002h2.8c0.55,0,1,0.451,1,1.002v2.204C383.529,336.919,383.079,337.37,382.529,337.37"/>
	<line fill="#EDEDED" stroke="#F8A122" stroke-width="2" x1="378.779" y1="326.049" x2="395.279" y2="326.049"/>
	<path fill="#EDEDED" stroke="#398ACA" stroke-width="2" d="M448.279,326.049"/>
	<path fill="#EDEDED" stroke="#398ACA" stroke-width="2" d="M413.779,326.049"/>
</g>
<g>
	<g>
		<linearGradient id="SVGID_19_" gradientUnits="userSpaceOnUse" x1="415.0889" y1="325.8584" x2="415.0889" y2="318.5192">
			<stop  offset="0" style="stop-color:#F57F17"/>
			<stop  offset="1" style="stop-color:#FBC02D"/>
		</linearGradient>
		<path fill="url(#SVGID_19_)" d="M412.649,325.801c2.172-1.039,4.347-2.07,6.524-3.098c0.345-0.163,0.611-0.365,0.586-0.789
			c-0.02-0.344-0.236-0.548-0.704-0.675c-0.287-0.078-0.574-0.157-0.86-0.235l-6.449-1.707c0,0-1.274-0.339-1.298-1.361l-0.03-0.438
			c0.006,0.288,0.011,0.577,0.011,0.865c0.002,2.03,0.004,4.06-0.002,6.089c-0.001,0.562,0.192,1.012,0.684,1.324
			C411.613,326.101,412.121,326.054,412.649,325.801z"/>
		<linearGradient id="SVGID_20_" gradientUnits="userSpaceOnUse" x1="412.9684" y1="320.5723" x2="412.9684" y2="316.2762">
			<stop  offset="0" style="stop-color:#364099"/>
			<stop  offset="1" style="stop-color:#2C87C4"/>
		</linearGradient>
		<path fill="url(#SVGID_20_)" d="M411.746,319.297c0,0,4.591,1.197,3.658,0.956c-0.443-0.115-0.79-0.338-1.083-0.684
			c-0.852-1.01-1.717-2.008-2.572-3.015c-0.23-0.271-0.502-0.395-0.845-0.275c-0.358,0.126-0.501,0.407-0.495,0.775
			c0.002,0.148,0.005,0.297,0.008,0.445l0.03,0.438C410.472,318.958,411.746,319.297,411.746,319.297z"/>
	</g>
	<g>
		<linearGradient id="SVGID_21_" gradientUnits="userSpaceOnUse" x1="405.0358" y1="331.3424" x2="405.0358" y2="327.2846">
			<stop  offset="0" style="stop-color:#F57F17"/>
			<stop  offset="1" style="stop-color:#FBC02D"/>
		</linearGradient>
		<path fill="url(#SVGID_21_)" d="M405.49,327.671c0,0.128-0.044,0.236-0.133,0.324c-0.089,0.089-0.196,0.133-0.322,0.133
			c-0.126,0-0.233-0.044-0.322-0.133c-0.089-0.089-0.133-0.197-0.133-0.324c0-0.128,0.044-0.236,0.133-0.324
			c0.089-0.089,0.196-0.133,0.322-0.133c0.126,0,0.233,0.044,0.322,0.133C405.446,327.435,405.49,327.543,405.49,327.671z
			 M404.661,331.364v-2.944h0.749v2.944H404.661z"/>
		<linearGradient id="SVGID_22_" gradientUnits="userSpaceOnUse" x1="407.2579" y1="331.3424" x2="407.2579" y2="327.2846">
			<stop  offset="0" style="stop-color:#F57F17"/>
			<stop  offset="1" style="stop-color:#FBC02D"/>
		</linearGradient>
		<path fill="url(#SVGID_22_)" d="M406.628,331.364h-0.749v-3.933h0.749v2.248l0.994-1.26h1.015l-1.307,1.488l1.307,1.456h-0.999
			l-1.01-1.228V331.364z"/>
		<linearGradient id="SVGID_23_" gradientUnits="userSpaceOnUse" x1="409.362" y1="331.3424" x2="409.362" y2="327.2846">
			<stop  offset="0" style="stop-color:#F57F17"/>
			<stop  offset="1" style="stop-color:#FBC02D"/>
		</linearGradient>
		<path fill="url(#SVGID_23_)" d="M408.987,331.364v-3.933h0.749v3.933H408.987z"/>
		<linearGradient id="SVGID_24_" gradientUnits="userSpaceOnUse" x1="411.6325" y1="331.3424" x2="411.6325" y2="327.2846">
			<stop  offset="0" style="stop-color:#F57F17"/>
			<stop  offset="1" style="stop-color:#FBC02D"/>
		</linearGradient>
		<path fill="url(#SVGID_24_)" d="M410.498,330.979c-0.264-0.285-0.396-0.649-0.396-1.092c0-0.443,0.131-0.805,0.393-1.087
			c0.262-0.282,0.595-0.423,0.999-0.423s0.712,0.167,0.925,0.5v-0.457h0.744v2.944h-0.744v-0.494
			c-0.223,0.358-0.533,0.537-0.93,0.537C411.092,331.407,410.762,331.264,410.498,330.979z M412.185,330.527
			c0.156-0.154,0.234-0.366,0.234-0.635c0-0.269-0.078-0.481-0.234-0.635c-0.156-0.154-0.338-0.231-0.547-0.231
			c-0.209,0-0.391,0.076-0.545,0.229c-0.154,0.152-0.231,0.363-0.231,0.632c0,0.269,0.078,0.482,0.234,0.638
			c0.156,0.156,0.337,0.234,0.545,0.234S412.029,330.681,412.185,330.527z"/>
		<linearGradient id="SVGID_25_" gradientUnits="userSpaceOnUse" x1="414.9672" y1="331.3424" x2="414.9672" y2="327.2846">
			<stop  offset="0" style="stop-color:#F57F17"/>
			<stop  offset="1" style="stop-color:#FBC02D"/>
		</linearGradient>
		<path fill="url(#SVGID_25_)" d="M414.313,328.42v0.441c0.188-0.322,0.492-0.484,0.914-0.484c0.337,0,0.611,0.111,0.824,0.332
			c0.213,0.221,0.319,0.529,0.319,0.922v1.733h-0.744v-1.626c0-0.23-0.058-0.407-0.175-0.529s-0.276-0.183-0.478-0.183
			s-0.362,0.061-0.481,0.183c-0.119,0.122-0.178,0.299-0.178,0.529v1.626h-0.749v-2.944H414.313z"/>
		<linearGradient id="SVGID_26_" gradientUnits="userSpaceOnUse" x1="418.2426" y1="332.721" x2="418.2426" y2="328.3083">
			<stop  offset="0" style="stop-color:#364099"/>
			<stop  offset="1" style="stop-color:#2C87C4"/>
		</linearGradient>
		<path fill="url(#SVGID_26_)" d="M417.108,330.979c-0.264-0.285-0.396-0.649-0.396-1.092c0-0.443,0.131-0.805,0.393-1.087
			c0.262-0.282,0.595-0.423,0.999-0.423s0.712,0.167,0.925,0.5v-0.457h0.744v4.347h-0.744v-1.897
			c-0.223,0.358-0.533,0.537-0.93,0.537C417.702,331.407,417.372,331.264,417.108,330.979z M418.795,330.527
			c0.156-0.154,0.234-0.366,0.234-0.635c0-0.269-0.078-0.481-0.234-0.635c-0.156-0.154-0.338-0.231-0.547-0.231
			c-0.209,0-0.391,0.076-0.545,0.229c-0.154,0.152-0.231,0.363-0.231,0.632c0,0.269,0.078,0.482,0.234,0.638
			c0.156,0.156,0.337,0.234,0.545,0.234S418.639,330.681,418.795,330.527z"/>
		<linearGradient id="SVGID_27_" gradientUnits="userSpaceOnUse" x1="421.5729" y1="332.721" x2="421.5729" y2="328.3083">
			<stop  offset="0" style="stop-color:#364099"/>
			<stop  offset="1" style="stop-color:#2C87C4"/>
		</linearGradient>
		<path fill="url(#SVGID_27_)" d="M422.227,328.42h0.749v2.944h-0.749v-0.446c-0.188,0.322-0.494,0.484-0.919,0.484
			c-0.333,0-0.606-0.111-0.818-0.332c-0.213-0.221-0.319-0.529-0.319-0.922v-1.727h0.744v1.621c0,0.23,0.058,0.407,0.175,0.531
			c0.117,0.124,0.276,0.186,0.478,0.186c0.202,0,0.362-0.062,0.481-0.186c0.119-0.124,0.178-0.301,0.178-0.531V328.42z"/>
	</g>
</g>
<polygon fill="#EDEDED" points="28,372 -23,372 2,304 28,299.263 "/>
<polygon fill="#EDEDED" points="654,393 568,393 568,299 613.031,303.938 "/>
</svg>
